<svg version="1.1" xmlns="http://www.w3.org/2000/svg" xmlns:xlink="http://www.w3.org/1999/xlink" width="135.58629" height="73.08908" viewBox="0,0,135.58629,73.08908"><g transform="translate(-172.20686,-143.45549)"><g data-paper-data="{&quot;isPaintingLayer&quot;:true}" fill-rule="nonzero" stroke-linecap="butt" stroke-linejoin="miter" stroke-miterlimit="10" stroke-dasharray="" stroke-dashoffset="0" style="mix-blend-mode: normal"><path d="M174.70687,201.20804c0,-14.52678 0,-37.15438 0,-44.73485c0,-4.91221 5.42539,-10.51769 11.09422,-10.51769c14.47323,0 78.74469,0 106.57419,0c7.94342,0 12.91787,6.84757 12.91787,11.50449c0,8.08686 0,32.70426 0,47.03738c0,5.72526 -4.42547,9.5472 -11.60214,9.5472c-27.53094,0 -95.54911,0 -109.53458,0c-4.92434,0 -9.44956,-5.33945 -9.44956,-12.83652z" fill="#758eff" stroke="#002dff" stroke-width="5"/><path d="M272.86793,212.37609v-64.23133h30.09036v64.23133z" fill="#0021b3" stroke="#002dff" stroke-width="0"/><path d="M174.70686,201.20803c0,-14.52678 0,-37.15438 0,-44.73485c0,-4.91221 5.42539,-10.51769 11.09422,-10.51769c14.47323,0 78.74469,0 106.57419,0c7.94342,0 12.91787,6.84757 12.91787,11.50449c0,8.08686 0,32.70426 0,47.03738c0,5.72526 -4.42547,9.5472 -11.60214,9.5472c-27.53094,0 -95.54911,0 -109.53458,0c-4.92434,0 -9.44956,-5.33945 -9.44956,-12.83652z" fill="none" stroke="#002dff" stroke-width="5"/><path d="M189.75204,199.74568c0,-13.52513 0,-34.59251 0,-41.65029c0,-4.57351 4.17524,-9.79248 8.53783,-9.79248c11.13824,0 60.59994,0 82.01683,0c6.11306,0 9.94127,6.37541 9.94127,10.71123c0,7.52926 0,30.44924 0,43.79406c0,5.33049 -3.40574,8.8889 -8.92872,8.8889c-21.18712,0 -73.53219,0 -84.29507,0c-3.78965,0 -7.27214,-4.97129 -7.27214,-11.95141z" fill="#758eff" stroke="none" stroke-width="0"/><text transform="translate(192.70513,189.8889) scale(0.79759,0.79759)" font-size="40" xml:space="preserve" fill="#212949" fill-rule="nonzero" stroke="none" stroke-width="1" stroke-linecap="butt" stroke-linejoin="miter" stroke-miterlimit="10" stroke-dasharray="" stroke-dashoffset="0" font-family="Sans Serif" font-weight="normal" text-anchor="start" style="mix-blend-mode: normal"><tspan x="0" dy="0">$10M</tspan></text></g></g></svg>