<svg version="1.1" xmlns="http://www.w3.org/2000/svg" xmlns:xlink="http://www.w3.org/1999/xlink" width="136.38328" height="136.38328" viewBox="0,0,136.38328,136.38328"><g transform="translate(-171.80836,-111.80837)"><g data-paper-data="{&quot;isPaintingLayer&quot;:true}" fill-rule="nonzero" stroke-linejoin="miter" stroke-miterlimit="10" stroke-dasharray="" stroke-dashoffset="0" style="mix-blend-mode: normal"><path d="M176.80836,180c0,-34.89978 28.29186,-63.19164 63.19164,-63.19164c34.89978,0 63.19164,28.29186 63.19164,63.19164c0,34.89978 -28.29186,63.19164 -63.19164,63.19164c-34.89978,0 -63.19164,-28.29186 -63.19164,-63.19164z" fill="#ff6666" stroke="#9b3e3e" stroke-width="5" stroke-linecap="butt"/><path d="M277.32563,131.21475l-74.65126,97.57052" fill="none" stroke="#000000" stroke-width="10" stroke-linecap="round"/><path d="M283.21916,224.85625l-86.43831,-89.71249" fill="none" stroke="#000000" stroke-width="10" stroke-linecap="round"/><path d="M176.80836,180.00001c0,-34.89978 28.29186,-63.19164 63.19164,-63.19164c34.89978,0 63.19164,28.29187 63.19164,63.19164c0,34.89978 -28.29186,63.19164 -63.19164,63.19164c-34.89978,0 -63.19164,-28.29186 -63.19164,-63.19164z" fill="none" stroke="#9b3e3e" stroke-width="10" stroke-linecap="butt"/></g></g></svg>