<svg version="1.1" xmlns="http://www.w3.org/2000/svg" xmlns:xlink="http://www.w3.org/1999/xlink" width="135.58628" height="73.08907" viewBox="0,0,135.58628,73.08907"><defs><linearGradient x1="174.70686" y1="180.00001" x2="305.29314" y2="180.00001" gradientUnits="userSpaceOnUse" id="color-1"><stop offset="0" stop-color="#ff0000"/><stop offset="1" stop-color="#fb00ff"/></linearGradient></defs><g transform="translate(-172.20686,-143.45548)"><g data-paper-data="{&quot;isPaintingLayer&quot;:true}" fill-rule="nonzero" stroke-linecap="butt" stroke-linejoin="miter" stroke-miterlimit="10" stroke-dasharray="" stroke-dashoffset="0" style="mix-blend-mode: normal"><path d="M174.70686,201.20802c0,-14.52678 0,-37.15438 0,-44.73485c0,-4.91221 5.42539,-10.51769 11.09422,-10.51769c14.47323,0 78.74469,0 106.57419,0c7.94342,0 12.91787,6.84757 12.91787,11.50449c0,8.08686 0,32.70426 0,47.03738c0,5.72526 -4.42547,9.5472 -11.60214,9.5472c-27.53094,0 -95.54911,0 -109.53458,0c-4.92434,0 -9.44956,-5.33945 -9.44956,-12.83652z" fill="url(#color-1)" stroke="#b10000" stroke-width="5"/><text transform="translate(196.7316,188.09764) scale(0.6748,0.6748)" font-size="40" xml:space="preserve" fill="#000000" fill-rule="nonzero" stroke="none" stroke-width="1" stroke-linecap="butt" stroke-linejoin="miter" stroke-miterlimit="10" stroke-dasharray="" stroke-dashoffset="0" font-family="Sans Serif" font-weight="normal" text-anchor="start" style="mix-blend-mode: normal"><tspan x="0" dy="0">$100M</tspan></text></g></g></svg>