<svg version="1.1" xmlns="http://www.w3.org/2000/svg" xmlns:xlink="http://www.w3.org/1999/xlink" width="157" height="313.65603" viewBox="0,0,157,313.65603"><g transform="translate(-158.72798,-21.92198)"><g data-paper-data="{&quot;isPaintingLayer&quot;:true}" fill-rule="nonzero" stroke-linecap="butt" stroke-linejoin="miter" stroke-miterlimit="10" stroke-dasharray="" stroke-dashoffset="0" style="mix-blend-mode: normal"><path d="M201.80588,254.81702c0.30014,0.50497 0.25182,6.07577 0.24674,7.08297c-0.04012,7.95469 -3.80225,15.13094 -12.19455,16.48127c-7.86624,1.26569 -15.04118,-3.6655 -20.33356,-9.0195c-0.80167,-1.62913 -1.89589,-3.14454 -2.40502,-4.88739c-0.08558,-0.29297 -0.06687,-5.97535 -0.06687,-6.57438c0,-0.47332 -0.00949,-6.14904 0.03228,-6.40045c0.61265,-3.68719 2.49836,-6.54152 4.22193,-9.69792c0.68945,-1.2626 0.60811,-3.10102 1.78402,-3.92973c0.80602,-0.56803 6.07558,-0.47794 7.46177,-0.4719c2.7956,0.0122 4.41751,-0.26194 6.56759,0.54206c0.10596,-3.17887 0.36134,-6.33203 0.96469,-9.44251c0.26261,-1.35386 0.65963,-2.71491 1.34109,-3.91387c0.40341,-0.70977 1.51938,-0.88213 1.81693,-1.64238c0.36446,-0.93122 -0.38896,-2.07875 0,-3c0.45941,-1.08808 1.65135,-1.69587 2.37634,-2.62826c2.5383,-3.26442 5.00578,-8.0779 8.47158,-10.44313c1.34159,-0.91556 2.89583,-1.47198 4.34374,-2.20797c0,0 2.23606,-1.11804 3.3541,1.11803c1.11804,2.23607 -1.11803,3.3541 -1.11803,3.3541c-4.42624,2.16943 -4.25047,2.68115 -7.18468,6.34891c-1.33333,1.66666 -2.63793,3.35673 -4,5c-0.45214,0.54549 -1.37698,0.70755 -1.62365,1.37174c-0.34816,0.93743 0.37734,2.07393 0,3c-0.40416,0.99186 -1.60602,1.45532 -2.18308,2.35762c-1.22631,1.91746 -0.29385,2.8958 -0.65891,5.08613c-0.17329,1.03975 -0.82049,1.9613 -1,3c-0.32326,1.87052 -0.30107,3.94734 -0.20556,6.02458c1.22066,0.58787 2.61455,0.91484 3.56103,1.8644c0.97647,0.97965 0.91598,2.64948 1.71492,3.77859c1.05505,1.49106 2.9554,2.34118 3.77159,3.97526c0.43982,0.88056 0.29442,1.91406 0.21817,2.92951c0.27404,0.28762 0.52006,0.59877 0.72539,0.94423z" data-paper-data="{&quot;index&quot;:null}" fill="#000000" stroke="none" stroke-width="0.5"/><path d="M270.07214,249.87279c-0.07625,-1.01544 -0.22165,-2.04895 0.21817,-2.92951c0.8162,-1.63408 2.71654,-2.4842 3.77159,-3.97526c0.79894,-1.12911 0.73846,-2.79895 1.71493,-3.77859c0.94647,-0.94956 2.34036,-1.27653 3.56102,-1.8644c0.09551,-2.07724 0.1177,-4.15406 -0.20556,-6.02458c-0.17951,-1.0387 -0.82671,-1.96025 -1,-3c-0.36506,-2.19033 0.5674,-3.16866 -0.65891,-5.08613c-0.57706,-0.90229 -1.77892,-1.36576 -2.18307,-2.35762c-0.37735,-0.92607 0.34816,-2.06257 0,-3c-0.24668,-0.66418 -1.17151,-0.82625 -1.62366,-1.37174c-1.36207,-1.64326 -2.66667,-3.33333 -4,-5c-2.93421,-3.66776 -2.75844,-4.17948 -7.18468,-6.3489c0,0 -2.23607,-1.11803 -1.11803,-3.3541c1.11803,-2.23607 3.3541,-1.11803 3.3541,-1.11803c1.44791,0.73599 3.00215,1.2924 4.34374,2.20796c3.46581,2.36523 5.93328,7.17872 8.47158,10.44313c0.725,0.93239 1.91694,1.54018 2.37634,2.62826c0.38897,0.92125 -0.36446,2.06878 0,3c0.29755,0.76025 1.41351,0.93261 1.81693,1.64238c0.68145,1.19896 1.07848,2.56002 1.34109,3.91387c0.60334,3.11048 0.85873,6.26365 0.96469,9.44251c2.15008,-0.804 3.772,-0.52986 6.5676,-0.54206c1.3862,-0.00605 6.65576,-0.09613 7.46178,0.47189c1.1759,0.8287 1.09456,2.66713 1.78401,3.92973c1.72357,3.1564 3.60928,6.01073 4.22193,9.69792c0.04177,0.25142 0.03228,5.92714 0.03228,6.40046c0,0.59903 0.01871,6.28141 -0.06688,6.57438c-0.50913,1.74285 -1.60334,3.25826 -2.40502,4.88739c-5.29238,5.354 -12.46732,10.28518 -20.33356,9.01949c-8.3923,-1.35033 -12.15442,-8.52658 -12.19454,-16.48127c-0.00508,-1.00721 -0.0534,-6.578 0.24674,-7.08297c0.20533,-0.34546 0.45135,-0.65661 0.72539,-0.94423z" fill="#000000" stroke="none" stroke-width="0.5"/><path d="M272.54506,314.44852c1.64862,0.34397 3.06115,1.4573 4.69453,1.86757c1.03224,0.25928 2.13958,-0.05258 3.19091,0.11311c3.2389,0.51046 10.54856,2.08354 12.00647,5.66286c0.43074,1.05752 -2.07644,8.16593 -2.90291,8.83945c-0.97029,0.79073 -2.55626,-0.0499 -3.73732,0.36462c-1.13403,0.39802 -1.85314,1.64061 -3,2c-1.18517,0.3714 -2.48262,0.08746 -3.72446,0.10727c-4.74046,0.07562 -9.25111,0.3393 -13.79057,-1.12829l-2.32746,-1.13564c0,0 -0.67816,-0.33908 -1.1008,-1.01723c-0.67816,-0.42265 -1.01723,-1.1008 -1.01723,-1.1008l-2,-4c-1.20242,-2.41157 -2.81139,-4.60605 -4.00972,-7.01966c-0.90157,-1.8159 -0.84337,-4.04222 -1.88084,-5.78405c-1.70026,-2.85462 -5.16432,-4.69262 -7.99141,-6.07826c0,0 -2.23607,-1.11803 -1.11803,-3.3541c1.11803,-2.23607 3.3541,-1.11803 3.3541,-1.11803c3.65351,1.85711 7.78912,4.2407 10.00859,7.92174c1.54401,2.56077 0.87205,3.74201 2.11916,6.21595c0.03662,0.07265 0.0736,0.14512 0.11089,0.21741c2.71008,-2.36034 9.95325,-2.23383 13.11609,-1.57393z" fill="#000000" stroke="none" stroke-width="0.5"/><path d="M207.0723,314.40341h3c0,0 0.73905,0 1.41349,0.40183c1.55261,-3.80619 3.05473,-7.62614 4.1827,-11.58863c0,0 0.6868,-2.40381 3.09061,-1.71701c2.40381,0.6868 1.71701,3.09061 1.71701,3.09061c-2.32326,8.10333 -6.1327,15.64699 -8.90381,23.62061v2.69259c0,0.15806 -0.01467,0.3127 -0.04272,0.46263c0.0277,0.16488 0.04272,0.34362 0.04272,0.53737c0,2.5 -2.5,2.5 -2.5,2.5h-3c-1.89404,-0.02352 -3.72953,0.66612 -5.59954,0.96772c-2.76445,0.44586 -5.60028,0.03228 -8.40046,0.03228c-0.7498,0 -7.53773,0.09413 -8.17964,-0.29581c-1.45986,-0.88683 -2.24356,-2.60881 -3.06614,-4.10581c-5.30549,-9.65529 5.65187,-16.42701 13.94033,-17.57965c2.08516,-0.28997 5.63699,0.03955 7.84185,0.98127c1.48787,0 2.97574,0 4.4636,0zM207.79457,324.07119c0.08545,-0.23228 0.17166,-0.46424 0.25856,-0.6959c-0.19704,-0.00964 -0.39402,-0.02164 -0.5909,-0.03588c0.1016,0.24625 0.21443,0.48965 0.33234,0.73178z" fill="#000000" stroke="none" stroke-width="0.5"/><path d="M210.95171,303.60593v-162.16217h52.55255v162.16217z" fill="#e4e1a2" stroke="#83815d" stroke-width="5"/><path d="M213.54996,301.05334v-151.65165h10.13513v151.65166z" fill="#fffbda" stroke="none" stroke-width="0"/><path d="M313.22798,97.92199c0,40.59293 -34.02636,73.5 -76,73.5c-41.97364,0 -76,-32.90707 -76,-73.5c0,-40.59293 34.02636,-73.5 76,-73.5c41.97364,0 76,32.90707 76,73.5z" fill="#0001ff" stroke="#000067" stroke-width="5"/><path d="M309.22798,90.49436c0,33.6494 -28.20606,60.92763 -63,60.92763c-34.79394,0 -63,-27.27823 -63,-60.92763c0,-33.6494 28.20606,-60.92763 63,-60.92763c34.79394,0 63,27.27823 63,60.92763z" fill="#7d7dff" stroke="#000067" stroke-width="0"/><path d="M305.22798,83.51739c0,25.9047 -21.71419,46.9046 -48.5,46.9046c-26.78581,0 -48.5,-20.9999 -48.5,-46.9046c0,-25.9047 21.71419,-46.90461 48.5,-46.90461c26.78581,0 48.5,20.99992 48.5,46.90461z" fill="#b5b5ff" stroke="#000067" stroke-width="0"/><path d="M239.60001,105.4h-3c-1.76048,-0.02186 -3.54578,0.29546 -5.20943,0.8717c-7.22962,2.20406 -7.97847,10.60708 -13.0228,15.39606c-0.91618,0.8698 -1.62884,2.09664 -2.81106,2.54193c-2.81048,1.05858 -5.20806,-0.09565 -7.74728,-0.938c-3.45422,-1.14588 -7.30609,-2.76439 -9.33606,-6.05738c-2.99668,-4.86117 -2.37337,-10.90534 -2.37337,-16.31432c0,0 0,-0.20406 0.0583,-0.49558c-3.47523,0.06305 -11.92424,0.75618 -14.32606,-0.73666c-1.08979,-0.67735 -0.06539,-2.6197 -0.54194,-3.81106c-0.72424,-1.8106 -4.9702,-3.97442 -6.27527,-5.02335c-2.61131,-2.0988 -2.93953,-3.56594 -6.2056,-4.56165c0,0 -2.37171,-0.79057 -1.58114,-3.16227c0.79057,-2.37171 3.16228,-1.58114 3.16228,-1.58114c3.84856,1.35984 4.7774,3.03687 7.7944,5.43836c1.73415,1.38035 3.65675,2.55817 5.18279,4.16559c0.8698,0.91618 2.07275,1.63811 2.54193,2.81106c0.27917,0.69791 -1.20293,1.83103 -0.54193,2.18894c0.97144,0.526 2.13507,-0.60332 3.23223,-0.73223c2.64845,-0.31117 5.33334,0 8,0c6.62676,0 13.65716,-0.65246 20.24634,0.01216c2.78451,0.28086 5.37332,1.66519 8.14946,2.01936c1.76211,0.22481 3.60498,-0.35385 5.32865,0.07574c1.16618,0.29064 2,1.33334 3,2c8.69507,-0.21815 17.32863,0.09312 25.87508,-1.07499c2.08877,-0.28548 3.92032,-1.65445 6,-2c1.97295,-0.32782 4.02922,0.34059 6,0c2.97311,-0.51381 6.01243,-1.66207 9,-2c1.4728,-0.16659 3.00651,0.52024 4.44375,0.15802c0.68703,-0.17315 0.82625,-1.17151 1.37174,-1.62365c1.90231,-1.57679 5.13121,-3.09638 6.45835,-5.38097c0.52947,-0.91147 0.45767,-2.09613 1,-3c0.48507,-0.80845 1.51493,-1.19155 2,-2c0.54233,-0.90387 0.66667,-2 1,-3l2.35886,-2.45344c0,0 1.76777,-1.76776 3.53553,0c1.76776,1.76776 0,3.53553 0,3.53553l-1.64114,1.54656c-0.33333,1 -0.45767,2.09613 -1,3c-0.48507,0.80845 -1.51493,1.19155 -2,2c-0.54233,0.90387 -0.4472,2.10249 -1,3c-1.74143,2.82739 -5.02934,4.66553 -7.54165,6.61903c-0.93239,0.725 -1.50002,2.02698 -2.62826,2.37635c-1.76992,0.54806 -3.72016,-0.09048 -5.55626,0.15802c-0.30588,0.0414 -0.6115,0.09003 -0.91691,0.1445c0.06592,0.64508 -0.11183,1.17835 -0.11183,1.17835c-1.32223,3.81739 -0.31277,7.29135 -0.83607,11.15871c0.28894,1.57542 0.28028,3.24484 -0.14292,4.77518c-0.43162,1.5608 -1.36568,2.93079 -2.57404,4.07309c-0.21677,0.79578 -0.50451,1.54103 -1.12006,2.03675c-1.8194,1.46523 -4.26744,1.66173 -6.57087,1.67444c-0.87783,0.11095 -1.9626,0.06046 -3.05608,-0.00447c-1.23904,0.00715 -2.49435,0.0159 -3.74728,-0.02466c-1.14189,0.19379 -2.16577,1.04528 -3.32439,1.02039c-1.83605,-0.03943 -7.81896,-2.75057 -8.76776,-3.73224c-1.2386,-1.2815 -1.98772,-2.85227 -2.42733,-4.57205c-0.47726,-0.88247 -0.41276,-2.01678 -0.93153,-2.88139c-0.48507,-0.80845 -1.52244,-1.18709 -2,-2c-0.63101,-1.07412 -0.83005,-2.34917 -1.24508,-3.52375c-0.0205,-0.06724 -0.63875,-3.23289 -1.585,-3.48087c-0.44181,-0.11579 -0.9011,-0.00437 -1.36128,0.08904c-0.38718,0.10125 -0.68202,0.10126 -0.68202,0.10126zM247.09635,104.38706c-0.01064,0.00025 -0.02129,0.00051 -0.03193,0.00077c0.01028,0.02742 0.02049,0.05495 0.03063,0.08256c0.00046,-0.02783 0.00089,-0.0556 0.00129,-0.08333z" fill="#000000" stroke="none" stroke-width="0.5"/><path d="M265.10001,136.89999c0,2.5 -2.5,2.5 -2.5,2.5l-2.76777,-0.73223c-1.74615,-1.85294 -4.05203,-2.87429 -6.63269,-3.30005c-1.0935,-0.18041 -2.27096,0.27053 -3.324,-0.07499c-1.14195,-0.37469 -1.8452,-1.66702 -3,-2c-1.17761,-0.33956 -2.46201,0.2432 -3.676,0.07499c-1.04412,-0.14467 -1.9613,-0.82049 -3,-1c-2.63809,-0.45592 -5.91859,0.03228 -8.59954,0.03228c-2.5332,0 -5.09033,-0.38005 -7.59954,-0.03228c-6.26641,0.8685 -11.65214,5.9056 -17.60989,7.90399c0,0 -2.37171,0.79057 -3.16228,-1.58114c-0.79057,-2.37171 1.58114,-3.16228 1.58114,-3.16228c6.31459,-2.09009 11.69938,-7.11782 18.39011,-8.09601c0.2877,-0.04206 7.88391,-0.03228 8.40046,-0.03228c2.97392,0 6.47128,-0.44014 9.40046,0.03228c1.04064,0.16784 1.95708,0.84692 3,1c1.42627,0.20934 2.93704,-0.31796 4.324,0.07499c1.15634,0.32761 1.86183,1.61399 3,2c0.84507,0.28661 1.79602,-0.2231 2.676,-0.07499c3.66911,0.61757 6.62139,2.10136 9.24595,4.58421l-0.64641,-0.61649c0,0 2.5,0 2.5,2.5z" fill="#000000" stroke="none" stroke-width="0.5"/></g></g></svg>