<svg version="1.1" xmlns="http://www.w3.org/2000/svg" xmlns:xlink="http://www.w3.org/1999/xlink" width="375.28408" height="334.86537" viewBox="0,0,375.28408,334.86537"><g transform="translate(-52.60571,23.34836)"><g data-paper-data="{&quot;isPaintingLayer&quot;:true}" fill-rule="nonzero" stroke-linejoin="miter" stroke-miterlimit="10" stroke-dasharray="" stroke-dashoffset="0" style="mix-blend-mode: normal"><path d="M362.70647,-18.34836l-25.52553,168.16817" fill="none" stroke="#000000" stroke-width="10" stroke-linecap="round"/><path d="M134.47824,-12.34235l18.01802,160.66066" fill="none" stroke="#000000" stroke-width="10" stroke-linecap="round"/><path d="M112.99734,308.52152c0,0 -57.89163,-63.85907 -57.89163,-95.13381c0,-28.0224 57.89163,-83.83114 57.89163,-83.83114h258.14044c0,0 53.75652,56.09024 53.75652,83.83114c0,31.44791 -53.75652,95.13381 -53.75652,95.13381z" fill="#bfcbff" stroke="#6b86ff" stroke-width="5" stroke-linecap="butt"/><path d="M111.95571,307.47747c0,0 -55.55556,-63.72056 -55.55556,-94.59459c0,-27.87884 55.55556,-82.58258 55.55556,-82.58258h27.02703c0,0 -36.03604,56.20525 -36.03604,84.08408c0,30.87404 36.03604,93.09309 36.03604,93.09309z" fill="#dae1ff" stroke="none" stroke-width="0" stroke-linecap="butt"/><path d="M113.49284,309.01702c0,0 -57.89163,-63.85908 -57.89163,-95.13382c0,-28.0224 57.89163,-83.83115 57.89163,-83.83115h258.14044c0,0 53.75651,56.09024 53.75651,83.83115c0,31.44791 -53.75651,95.13382 -53.75651,95.13382z" fill="none" stroke="#6b86ff" stroke-width="5" stroke-linecap="butt"/></g></g></svg>