<svg version="1.1" xmlns="http://www.w3.org/2000/svg" xmlns:xlink="http://www.w3.org/1999/xlink" width="296.00828" height="326.3353" viewBox="0,0,296.00828,326.3353"><g transform="translate(-91.58756,-9.24271)"><g data-paper-data="{&quot;isPaintingLayer&quot;:true}" fill-rule="nonzero" stroke-linecap="butt" stroke-linejoin="miter" stroke-miterlimit="10" stroke-dasharray="" stroke-dashoffset="0" style="mix-blend-mode: normal"><path d="M308.29249,247.87336c1.19726,0.83469 2.10037,2.09982 3.1414,3.14085c3.55217,3.55218 4.62689,6.02606 3.7135,11.07323c-0.32512,1.79656 -0.34888,3.86762 -1.53116,5.25886c-2.85794,3.36308 -5.439,2.86999 -8.9501,2.93568c-2.77085,0 -8.33064,0.79676 -10.95671,-0.1903c-1.00256,-0.37683 -1.44307,-1.62564 -2.35762,-2.18307c-1.05631,-0.64383 -2.58725,-0.47567 -3.45344,-1.35886c-0.9233,-0.94143 -0.8746,-2.49693 -1.47802,-3.66939c-0.61001,-1.18526 -1.74347,-2.10342 -2.14694,-3.37392c-0.37592,-1.18375 -0.08746,-2.48262 -0.10727,-3.72446c-0.07277,-4.56195 -1.0202,-12.12879 4.54329,-14.3097c1.5394,-0.60345 3.30355,-0.15904 4.95671,-0.1903c0.05872,-0.00111 0.11726,-0.002 0.17559,-0.00266c-1.99406,-5.44021 -4.85065,-10.19268 -7.42138,-15.39896c-0.40588,-0.82199 -0.20174,-1.92714 -0.78232,-2.6366c-1.1301,-1.38099 -5.37741,-3.49222 -6.9286,-4.15208c-5.5511,-2.36138 -10.08123,-2.8097 -16.04329,-2.8097c0,0 -2.5,0 -2.5,-2.5c0,-2.5 2.5,-2.5 2.5,-2.5c2.80018,0 5.63816,-0.42669 8.40046,0.03228c5.96186,0.99059 14.73663,4.39543 18.62765,9.00594c0.76901,0.91121 0.67965,2.29934 1.21768,3.3634c2.92581,5.78639 6.05659,11.09983 8.12592,17.30781l0.04298,0.9349c3.48727,0.9832 6.29014,3.04829 9.21168,5.94705z" data-paper-data="{&quot;index&quot;:null}" fill="#000000" stroke="none" stroke-width="0.5"/><path d="M272.54506,314.44852c1.64862,0.34397 3.06115,1.4573 4.69453,1.86757c1.03224,0.25928 2.13958,-0.05258 3.19091,0.11311c3.2389,0.51046 10.54856,2.08354 12.00647,5.66286c0.43074,1.05752 -2.07644,8.16593 -2.90291,8.83945c-0.97029,0.79073 -2.55626,-0.0499 -3.73732,0.36462c-1.13403,0.39802 -1.85314,1.64061 -3,2c-1.18517,0.3714 -2.48262,0.08746 -3.72446,0.10727c-4.74046,0.07562 -9.25111,0.3393 -13.79057,-1.12829l-2.32746,-1.13564c0,0 -0.67816,-0.33908 -1.1008,-1.01723c-0.67816,-0.42265 -1.01723,-1.1008 -1.01723,-1.1008l-2,-4c-1.20242,-2.41157 -2.81139,-4.60605 -4.00972,-7.01966c-0.90157,-1.8159 -0.84337,-4.04222 -1.88084,-5.78405c-1.70026,-2.85462 -5.16432,-4.69262 -7.99141,-6.07826c0,0 -2.23607,-1.11803 -1.11803,-3.3541c1.11803,-2.23607 3.3541,-1.11803 3.3541,-1.11803c3.65351,1.85711 7.78912,4.2407 10.00859,7.92174c1.54401,2.56077 0.87205,3.74201 2.11916,6.21595c0.03662,0.07265 0.0736,0.14512 0.11089,0.21741c2.71008,-2.36034 9.95325,-2.23383 13.11609,-1.57393z" fill="#000000" stroke="none" stroke-width="0.5"/><path d="M207.0723,314.40341h3c0,0 0.73905,0 1.41349,0.40183c1.55261,-3.80619 3.05473,-7.62614 4.1827,-11.58863c0,0 0.6868,-2.40381 3.09061,-1.71701c2.40381,0.6868 1.71701,3.09061 1.71701,3.09061c-2.32326,8.10333 -6.1327,15.64699 -8.90381,23.62061v2.69259c0,0.15806 -0.01467,0.3127 -0.04272,0.46263c0.0277,0.16488 0.04272,0.34362 0.04272,0.53737c0,2.5 -2.5,2.5 -2.5,2.5h-3c-1.89404,-0.02352 -3.72953,0.66612 -5.59954,0.96772c-2.76445,0.44586 -5.60028,0.03228 -8.40046,0.03228c-0.7498,0 -7.53773,0.09413 -8.17964,-0.29581c-1.45986,-0.88683 -2.24356,-2.60881 -3.06614,-4.10581c-5.30549,-9.65529 5.65187,-16.42701 13.94033,-17.57965c2.08516,-0.28997 5.63699,0.03955 7.84185,0.98127c1.48787,0 2.97574,0 4.4636,0zM207.79457,324.07119c0.08545,-0.23228 0.17166,-0.46424 0.25856,-0.6959c-0.19704,-0.00964 -0.39402,-0.02164 -0.5909,-0.03588c0.1016,0.24625 0.21443,0.48965 0.33234,0.73178z" fill="#000000" stroke="none" stroke-width="0.5"/><path d="M164.44592,246.9948c2.92154,-2.89876 5.72441,-4.96385 9.21168,-5.94705l0.04298,-0.9349c2.06933,-6.20798 5.20011,-11.52142 8.12592,-17.30781c0.53803,-1.06406 0.44867,-2.45219 1.21768,-3.3634c3.89102,-4.61051 12.66579,-8.01535 18.62765,-9.00594c2.7623,-0.45897 5.60028,-0.03228 8.40046,-0.03228c0,0 2.5,0 2.5,2.5c0,2.5 -2.5,2.5 -2.5,2.5c-5.96206,0 -10.49219,0.44832 -16.04329,2.8097c-1.55119,0.65986 -5.7985,2.77109 -6.9286,4.15208c-0.58058,0.70946 -0.37644,1.81461 -0.78232,2.6366c-2.57073,5.20628 -5.42732,9.95875 -7.42138,15.39896c0.05833,0.00066 0.11687,0.00155 0.17559,0.00266c1.65316,0.03126 3.41731,-0.41315 4.95671,0.1903c5.56349,2.18091 4.61606,9.74775 4.54329,14.3097c-0.01981,1.24184 0.26865,2.54071 -0.10727,3.72446c-0.40347,1.2705 -1.53693,2.18866 -2.14694,3.37392c-0.60342,1.17246 -0.55472,2.72796 -1.47802,3.66939c-0.86619,0.88319 -2.39713,0.71503 -3.45344,1.35886c-0.91455,0.55743 -1.35506,1.80624 -2.35762,2.18307c-2.62607,0.98706 -8.18586,0.1903 -10.95671,0.1903c-3.5111,-0.06569 -6.09216,0.4274 -8.9501,-2.93568c-1.18228,-1.39124 -1.20604,-3.4623 -1.53116,-5.25886c-0.91339,-5.04717 0.16133,-7.52105 3.7135,-11.07323c1.04103,-1.04103 1.94414,-2.30616 3.1414,-3.14085z" data-paper-data="{&quot;index&quot;:null}" fill="#000000" stroke="none" stroke-width="0.5"/><path d="M210.95171,303.60593v-162.16217h52.55255v162.16217z" fill="#e4e1a2" stroke="#83815d" stroke-width="5"/><path d="M213.54996,301.05334v-156.80345h10.13513v156.80345z" fill="#fffbda" stroke="none" stroke-width="0"/><path d="M290.8428,159.67344c0.55403,-1.10806 1.29108,-1.66703 2.02977,-1.91878c-1.81421,-0.41666 -3.62946,-0.82728 -5.4457,-1.23224c-0.23348,1.17419 -0.63962,2.34537 -1.25755,3.5063c-2.56812,4.82479 -7.04701,7.26506 -11.86479,8.75263c-0.53205,1.24199 -1.07481,2.5751 -1.63549,3.94377c3.71595,-0.63288 7.42827,-1.21644 11.11848,-1.73324c4.92973,-0.69039 9.94981,-0.63601 14.86636,-1.41476c2.52772,-0.40037 4.95416,-1.3718 7.49815,-1.65065c0.48919,-0.05362 0.87905,0.92738 1.3076,0.68545c0.37134,-0.20963 -0.22303,-0.82318 -0.33454,-1.23477c0,0 1.18585,-3.55756 4.74342,-2.37171c3.55756,1.18585 2.37171,4.74342 2.37171,4.74342c-0.79842,1.64913 -0.94691,3.82516 -2.39526,4.94738c-1.29705,1.00499 -3.26268,0.37851 -4.87455,0.68545c-7.43026,1.41491 -14.66302,1.99021 -22.1427,3.0377c-5.24891,0.73509 -10.54365,1.60764 -15.82909,2.56571c-0.614,1.1924 -1.25588,2.31905 -1.93139,3.33567c10.26978,-0.92008 20.47994,-2.20693 30.54378,-3.98507c3.91858,-0.69236 7.70558,-1.99064 11.56139,-2.97416c2.21301,-0.56448 9.75519,-2.08695 11.97978,-3.9325c0.45116,-0.37429 0.59042,-5.10594 -0.02856,-5.64669c-2.79338,-2.44033 -6.44693,-3.6702 -9.66071,-5.52218c-2.15997,-0.55282 -4.32159,-1.09517 -6.48481,-1.62768c-0.78171,0.55407 -1.5868,1.08143 -2.34904,1.65727c-1.37022,1.03513 -2.74762,2.06072 -4.12144,3.09108l-5.98777,-0.67626c0,0 -3.3541,-1.67705 -1.67705,-5.03115zM249.14203,177.25296c4.74344,-0.99272 9.54702,-1.96473 14.37014,-2.87764c0.55111,-1.17843 1.09022,-2.36488 1.62412,-3.55201c-7.70594,1.38831 -15.46092,2.44615 -23.24322,3.18106c-1.06302,0.6011 -2.12246,1.19077 -3.18556,1.76622c2.03222,0.80723 4.06292,1.6183 6.10011,2.41912c1.45681,-0.3185 2.90266,-0.6371 4.33441,-0.93675zM310.69135,154.37105c1.20074,0.31063 2.40081,0.62491 3.60018,0.94299c1.51776,0.8577 11.2215,6.08815 12.73951,7.84746c2.63419,3.05291 2.7779,12.04845 -0.02856,14.9605c-5.36568,5.56758 -16.16307,6.55907 -23.23048,8.36839c-8.89987,2.27845 -18.18417,2.95327 -27.28877,4.12652c-21.49658,2.77014 -43.62631,3.33363 -65.29004,3.33363c-6.77323,0 -13.54647,0 -20.3197,0c-7.49092,0 -11.6082,0.56643 -18.70669,-2.7187c-2.54648,-1.17849 -5.03974,-2.58005 -7.17885,-4.39599c-1.79009,-1.51965 -2.89046,-3.70482 -4.44091,-5.4683c-1.47678,-1.67969 -3.55662,-2.89267 -4.63349,-4.85293c-0.13243,-0.24107 -0.24559,-0.4894 -0.34335,-0.74354c-4.14994,0.08201 -8.33916,-0.19443 -11.51451,-1.84109c-3.4195,-1.77327 -5.48781,-5.74495 -6.84688,-9.08373c-1.87214,-4.59925 -3.39274,-10.05946 -3.66598,-15.35217c-10.36315,1.37752 -20.75778,2.49467 -31.20083,3.19379c-1.12267,0.69075 -2.28773,1.16856 -3.56635,1.06256c-0.52021,-0.04313 -1.00442,-0.18101 -1.46209,-0.38872l-0.07079,0.21238l-3.00904,-1.00301c-1.53234,-0.47126 -2.64618,-1.89801 -2.64618,-3.58491c0,-2.06574 1.6703,-3.74135 3.73401,-3.74997l4.06414,-0.01985c1.85161,-1.18735 5.05614,-2.72633 6.36392,-3.55338c6.68861,-4.22997 13.1636,-7.1745 20.45221,-10.27861c3.98651,-1.6978 7.98729,-3.55181 12.01337,-5.36255c-0.80157,-0.7378 -1.57437,-1.49025 -2.30949,-2.26015c-0.20833,-0.21819 -8.94798,-11.88479 -9.29307,-12.34519c-5.81212,-7.7543 -10.70419,-15.95725 -14.77936,-24.74158c-3.4879,-7.56672 -6.66647,-16.01523 -6.64888,-24.50096c0.00154,-0.74171 1.93221,-15.87864 2.09245,-16.27485c1.05919,-2.61893 3.32332,-4.56937 5.006,-6.83858c6.41307,-8.64848 14.67246,-16.06747 25.17013,-19.34435c4.20499,-1.3126 8.65877,-1.65773 13.02889,-2.21171c3.64839,-0.46248 7.32622,-1.46005 10.98184,-1.05871c10.67157,1.1716 20.96572,5.28363 30.84103,9.23132c1.59872,0.64109 3.16803,1.33138 4.71666,2.05717c1.36423,-0.67705 2.75356,-1.29443 4.19225,-1.79406c0.71814,-0.2494 1.44566,-0.4854 2.18088,-0.70997c0.42598,-1.77415 0.99469,-3.47559 2.0707,-4.91382c1.67797,-2.24284 3.89334,-4.02828 5.8635,-6.01936c2.25882,-2.2828 4.65845,-4.85246 8.27311,-5.04589c3.76657,-0.20156 12.38893,3.26546 16.01457,4.57967c5.66665,2.05403 11.3125,3.96293 17.01125,5.75907c11.24867,-0.20092 22.50347,-0.03934 33.633,0.98538c9.98897,0.91971 19.98342,2.69488 29.92532,4.03876c9.95701,1.34592 19.83647,3.11683 29.74045,4.80533c0.67762,0.11552 14.97428,2.54026 15.31947,2.6525c4.83243,1.57141 9.17843,4.37161 13.85843,6.35133c3.02234,1.54431 5.98127,3.42203 8.29438,5.90577c1.3987,1.50187 3.49778,2.67355 4.02852,4.65604c0.60143,2.24653 -0.57224,4.61672 -0.9309,6.91454c-0.35754,2.29069 -0.35041,4.69765 -1.21721,6.84795c-0.01714,0.04252 -6.91348,11.12655 -7.65424,12.15983c-5.17139,7.21351 -10.90618,13.79335 -16.9073,20.22327c0.88989,0.42693 1.7751,0.86313 2.65575,1.30727c1.37523,0.69358 3.04663,0.99634 4.111,2.10964c2.25133,2.35481 6.53044,4.90951 5.57846,8.02517c-1.05555,3.45463 -6.28686,3.58082 -9.57895,5.0677c-5.70238,2.57549 -6.31378,1.89717 -12.6172,1.94217c-2.51413,0 -5.02826,0 -7.5424,0c-0.76226,0.7331 -1.53567,1.44749 -2.32304,2.13717c-1.59554,1.39759 -3.22531,2.77702 -4.88664,4.13221c-2.4552,5.25179 -6.1525,10.43013 -9.29435,14.73754c-2.92474,4.00976 -6.49737,7.58255 -10.37826,10.67626c-1.02051,0.81352 -1.96597,1.74618 -2.98199,2.56906c-0.46756,2.24727 -1.48997,4.5016 -2.76864,6.53629zM136.66286,135.376c0.12426,-0.16107 0.25431,-0.31612 0.38955,-0.46579c-2.63017,1.11591 -5.26394,2.24673 -7.91184,3.37444c-4.49243,1.91326 -9.17769,3.42889 -13.4704,5.75595c-0.00446,0.00242 -0.00892,0.00484 -0.01338,0.00726c6.17331,-0.6185 12.33209,-1.36154 18.47996,-2.19497c0.45795,-2.31024 1.11205,-4.64395 2.52611,-6.47689zM309.76436,137.68692c0.76461,0.54797 1.40423,1.14169 1.93105,1.77192c0.0204,-0.01663 0.04085,-0.03318 0.06136,-0.04965c2.83578,-2.27823 5.51131,-4.8213 7.79564,-7.65878c-3.30033,2.05524 -6.67585,3.96997 -10.11109,5.70878c0.10662,0.0739 0.21429,0.14979 0.32305,0.22774zM204.65335,125.14038c5.78098,-0.60602 11.56605,-0.77699 17.36821,-0.97454c-0.16107,-0.34622 -0.32565,-0.68882 -0.49538,-1.02622c-2.76177,-0.87128 -5.66376,-1.46994 -8.28374,-2.62738c-1.55186,-0.13843 -3.08034,-0.37901 -4.54711,-0.88673c-0.05441,-0.01883 -0.1088,-0.03775 -0.16317,-0.05674c-1.84776,0.05465 -3.69563,0.10712 -5.54362,0.15729c-0.73936,-0.2405 -1.48757,-0.47674 -2.24272,-0.71048c-2.93349,0.53849 -5.84046,1.28419 -8.70912,2.28665c0.97459,0.32304 1.88566,0.62977 2.69176,0.93209c2.86069,1.07288 5.75015,2.06952 8.64842,3.04201c0.42479,-0.04581 0.85028,-0.09109 1.27648,-0.13596zM147.96351,136.61216c-1.75472,1.14531 -3.97969,1.72274 -5.34035,3.31629c-0.20817,0.2438 -0.37937,0.51134 -0.52161,0.79602c3.40877,-0.5026 6.81467,-1.02853 10.2183,-1.57192c-0.29266,-0.8249 -0.50215,-1.67338 -0.67032,-2.53356c-0.49202,-0.37725 -0.98953,-0.75456 -1.49088,-1.13246c-0.77319,0.30611 -1.50852,0.67748 -2.19513,1.12563zM144.13792,161.97615c0.4364,1.11631 1.93862,4.63751 3.45672,5.3413c1.71486,0.79501 4.00454,1.06521 6.43533,1.09671c-1.257,-4.84137 -2.50148,-8.76892 -1.55157,-14.23245c0.55748,-3.20644 1.60632,-5.6579 2.97392,-7.93931c-4.77659,0.77086 -9.55735,1.50982 -14.34397,2.2013c0.13248,4.6396 1.36351,9.27063 3.02958,13.53245zM237.26544,131.08949c-0.87937,-0.07857 -1.75994,-0.10879 -2.64133,-0.10621c2.45205,2.62714 5.48897,5.11038 8.46674,6.77719c0.76091,0.05293 1.52112,0.06357 2.28008,-0.01232c3.51606,-0.35155 5.52246,-1.31412 7.72242,-2.72916c-2.90147,-0.92701 -5.80136,-1.86 -8.69631,-2.80916c-2.36291,-0.47971 -4.73296,-0.90604 -7.1316,-1.12034zM161.68865,168.05254c1.22206,-0.08363 2.35033,-0.14851 3.31492,-0.14854c3.7524,-0.00011 7.50472,0.00045 11.25698,-0.00018c-0.45438,-0.3852 -0.94358,-0.7966 -1.4781,-1.23932c-2.05881,-1.70521 -4.59947,-2.95328 -6.18428,-5.10615c-0.91538,-1.24349 -1.64471,-2.5707 -2.23065,-3.95349c-2.0159,-1.22261 -4.17208,-2.28642 -5.7676,-3.99915c-0.02435,-0.02614 -0.04854,-0.05239 -0.07258,-0.07876c-1.36984,4.86468 -0.05744,9.11577 1.1613,14.52559zM187.18458,175.39692c-7.37049,0.00918 -14.74108,0.00688 -22.11196,0.00708c0.3796,0.29844 0.74551,0.60942 1.06288,0.96165c1.37249,1.52321 2.26107,3.48269 3.80196,4.83529c1.57138,1.37937 3.48059,2.3513 5.38025,3.22491c5.99973,2.75913 8.97348,2.02471 15.55578,2.02471c6.77323,0 13.54647,0 20.3197,0c0.94157,0 1.88397,-0.0012 2.82713,-0.00371c-5.72553,-1.70441 -11.28895,-4.37726 -16.62055,-6.75796c-3.37143,-1.50686 -6.88599,-2.69826 -10.21519,-4.29197zM188.9468,167.89452c3.17589,-0.00479 6.35177,-0.01192 9.52765,-0.02252c-1.24757,-0.76084 -2.48401,-1.54916 -3.71802,-2.33927c-2.86204,0.87024 -5.79752,1.01773 -8.70935,0.65947c0.8022,0.54389 1.71951,1.0898 2.89972,1.70232zM217.46895,167.75836c0.99289,-0.00903 1.98404,-0.02464 2.97363,-0.04656c-2.8318,-0.50241 -5.65708,-1.04507 -8.45391,-1.51159c1.44208,0.55286 2.91178,1.06974 4.39093,1.56784c0.36312,-0.00316 0.72623,-0.00638 1.08935,-0.00969zM294.3016,159.16278c0.37676,-0.27654 0.75916,-0.54643 1.14456,-0.8128c-0.01239,-0.00289 -0.02478,-0.00577 -0.03718,-0.00866zM257.74931,83.7322c0.5159,0.69792 1.01571,1.40861 1.4995,2.13091c3.12668,0.52459 6.25326,1.05809 9.38057,1.59989c0.014,-0.01467 0.028,-0.02933 0.042,-0.04401c-0.45828,-0.7583 -0.97036,-1.46865 -1.63632,-2.04539c-1.65624,-1.43434 -3.95354,-1.88982 -5.9303,-2.83473c-1.19213,-0.60328 -2.34637,-1.29474 -3.52783,-1.92286zM244.81315,50.95086c-1.07247,-3.60572 -4.40679,-6.9813 -7.55763,-8.6469c-1.97879,-1.04603 -4.31499,-1.19217 -6.46422,-1.81715c-2.23467,-0.64982 -4.38511,-1.66447 -6.68699,-2.00707c-1.18886,-0.17695 -2.39126,-0.17318 -3.59669,-0.13086c1.58788,1.12137 3.27286,2.16286 4.69198,3.4417c0.61321,0.5526 1.17703,1.1598 1.73825,1.76926c2.2653,1.27226 4.51279,2.58089 6.741,3.94228c3.07617,-0.44715 6.16127,-0.50235 9.01368,1.50623c0.81789,0.57593 1.51526,1.23009 2.12063,1.94252zM163.53712,46.7777c2.83025,-0.93975 5.61762,-2.02166 8.29784,-3.31975c1.41282,-0.68426 2.67545,-1.64001 3.97435,-2.5305c1.86966,-1.92604 3.76541,-3.81988 6.00317,-5.27194c2.10841,-1.36812 4.46655,-2.30267 6.72618,-3.4074c-8.81222,-3.52616 -17.96817,-7.13057 -27.44127,-8.31133c-3.20102,-0.39898 -6.42507,0.59715 -9.62534,1.00201c-8.36005,1.05761 -15.83796,2.93078 -23.03104,7.56786c-4.00913,2.58451 -7.27656,7.32751 -10.1743,11.07532c-1.33084,1.72125 -3.22119,3.11208 -4.03694,5.1291c-0.81575,2.01702 -0.41621,4.33177 -0.6636,6.4934c-0.51909,4.53564 -0.892,9.19409 -0.12911,13.69515c0.86014,5.07483 3.04851,9.99278 5.20244,14.62479c3.83742,8.3098 8.47508,16.06597 13.97316,23.39207c2.91079,3.87859 5.359,8.14661 8.70693,11.65481c1.37583,1.44169 2.8956,2.81745 4.49211,4.1485c1.14596,-0.47347 2.29448,-0.93356 3.44581,-1.37578c-0.75485,-6.69259 -0.95626,-13.37467 -0.57838,-20.2383c0.21206,-3.85179 -0.2123,-7.79899 0.67507,-11.55316c0.99904,-4.22659 2.32869,-8.46737 3.90149,-12.62118c-1.05476,-0.26646 -2.11313,-0.54133 -3.17647,-0.82489c-1.12407,-0.29975 -14.67551,-3.88212 -15.30424,-4.18606c-3.76064,-1.81797 -9.63502,-10.44858 -11.15134,-12.37921c7.08386,-3.50638 14.71227,-7.60148 22.31418,-10.01442c2.03137,-0.64478 4.18638,-0.83563 6.36919,-0.95322c0.07778,-0.07736 0.15886,-0.15177 0.24344,-0.22298c3.11231,-2.62046 7.24717,-2.14784 10.98665,-1.57288zM158.38899,126.58541c-0.1453,0.04896 -0.29054,0.0981 -0.4357,0.14742c0.16358,-0.00204 0.32725,-0.00333 0.49096,-0.00391c-0.01874,-0.04753 -0.03716,-0.09537 -0.05526,-0.14351zM160.74294,134.25711c0.0109,-0.01402 0.02184,-0.02802 0.03281,-0.04199c-0.02965,-0.00113 -0.0593,-0.00224 -0.08896,-0.00333c0.01872,0.0151 0.03743,0.03021 0.05615,0.04532zM157.53056,114.69684c-0.0148,-8.14451 -0.3772,-16.34811 -0.01069,-24.4809c-0.07371,-0.4812 -0.15157,-0.9606 -0.23446,-1.4377c-0.19756,0.72673 -0.38578,1.45379 -0.56424,2.18062c-0.84073,3.42409 -0.35621,7.04261 -0.55359,10.56287c-0.32901,5.86761 -0.20506,11.59411 0.35693,17.31504c0.29831,-0.09114 0.59796,-0.18141 0.89883,-0.27081c0.0244,-1.59001 0.10884,-2.97895 0.10722,-3.86913zM199.45277,146.55885c0.61319,1.79734 1.23474,3.59176 1.86867,5.38186c2.52783,-1.76242 5.11428,-3.44737 7.50384,-5.38669c-2.78092,0 -5.56183,0 -8.34275,0c-0.34211,0 -0.6854,0.00171 -1.02976,0.00483zM287.25428,145.90411c-0.35143,0.29519 -0.70219,0.59098 -1.05224,0.88737c0.03518,0.09388 0.06993,0.18789 0.10421,0.282c6.5372,0.08967 12.98371,-0.73066 19.14188,-3.34639c-1.20313,-1.25374 -3.60896,-1.66142 -5.86403,-1.82485c-3.95915,1.6097 -8.13706,3.12316 -12.32983,4.00186zM229.47495,180.23211c-0.4338,0.17984 -0.87108,0.3565 -1.31223,0.5298c0.77323,-0.02638 1.54667,-0.07187 2.31986,-0.13382c-0.33574,-0.13262 -0.67161,-0.26466 -1.00763,-0.39599zM231.42898,20.2752c-3.13565,-1.16454 -9.56899,-3.51513 -11.00876,-3.56884c-1.30374,-0.04863 -2.98129,2.09846 -3.78819,2.89397c-0.67429,0.66478 -1.38864,1.29209 -2.09484,1.9267c1.19357,-0.17264 2.70574,-0.06819 4.20081,0.14021c1.65067,-0.34262 3.28487,-0.69269 4.88569,-1.06987c2.59583,-0.10574 5.19814,-0.21525 7.80528,-0.32218zM164.04754,54.49456c-0.20794,0.06368 -0.41608,0.1266 -0.6244,0.18875c-1.8094,0.5399 -3.71808,0.75696 -5.64504,0.88849c0.00158,1.85691 -0.11296,3.71748 0.03051,5.568c0.0477,0.6153 0.26688,2.27616 0.55792,4.18587c0.33806,-0.67228 0.68086,-1.33908 1.02797,-1.99988c0.15617,-0.2973 2.65183,-5.05211 4.65304,-8.83124zM258.26354,155.54085c-3.07118,0.25263 -6.13172,0.27103 -9.02258,0.19026c-0.22351,-0.00625 -14.80221,-1.74372 -15.23299,-1.79492c-3.65267,-0.43409 -7.50817,-0.06329 -10.95129,-1.35764c-0.30743,-0.11557 -3.19138,-1.54145 -6.26932,-3.07409c-0.83154,0.80122 -1.67916,1.57241 -2.54738,2.30175c-0.31435,0.26407 -3.77128,2.76893 -6.83668,4.9899c1.77036,0.64825 3.5394,1.29873 5.30567,1.95467c6.31905,0.95648 12.77587,2.49513 19.14009,2.96822c5.9115,0.43944 11.76646,-0.10745 17.62036,-0.64284c3.02242,-1.70897 6.00822,-3.47983 8.79412,-5.53531zM284.29723,91.10088c-0.15061,-3.06874 -0.47569,-6.12878 -0.84744,-9.18192c-2.07497,-0.32578 -4.15301,-0.63737 -6.23372,-0.93523c0.63351,1.51983 1.56914,3.1409 1.11232,4.67778c-0.19335,0.65048 -0.45591,1.27072 -0.76763,1.86885c0.51412,0.65167 1.07521,1.28958 1.60732,1.93889c1.70063,0.37696 3.52596,0.86004 5.12916,1.63163zM301.4524,108.59953c1.46264,-0.24377 2.93272,-0.48968 4.40663,-0.7434c1.87,-0.36416 3.74052,-0.70496 5.61079,-1.01304c1.6312,-0.31194 3.26151,-0.64215 4.88609,-0.99827c1.56644,-2.04937 2.80756,-4.36338 4.29023,-6.48148c1.12585,-1.60836 2.3493,-3.15629 3.55363,-4.7157c-0.37487,-0.35945 -0.68421,-0.66634 -0.89469,-0.90457c-1.00407,-1.13644 -1.52599,-2.68185 -2.65491,-3.69437c-1.88899,-1.69421 -8.85475,-2.70977 -9.94449,-2.95068c-5.37775,-1.21125 -10.78924,-2.31051 -16.22706,-3.3058c0.57083,1.18626 1.10648,2.38263 1.33474,3.66733c1.15548,6.5032 0.34917,13.79854 -0.94641,20.40837c1.06021,0.22725 2.12363,0.46612 3.19181,0.71794c0.49667,0.11709 0.97798,0.22704 1.44669,0.33237c0.64919,-0.10433 1.29817,-0.21056 1.94694,-0.31869zM196.99908,60.89989c0.02717,-0.46485 0.05623,-0.92955 0.08725,-1.3941c-0.60464,0.01906 -1.20814,0.03068 -1.80267,-0.00749c-3.40145,-0.2184 -6.8266,-0.46951 -10.22536,-0.22905c-1.1851,0.31676 -2.34482,0.68307 -3.34974,1.35999c-1.02251,0.68877 -1.80343,1.65034 -2.55277,2.64926c4.19495,-1.00286 8.19196,-1.68984 13.01332,-2.0656c1.60751,-0.12529 3.21768,-0.2285 4.82996,-0.31301zM331.15396,77.18679c0.4737,-1.98382 3.29615,-7.50617 -0.01238,-9.65974c-1.21523,-0.79101 -2.90312,-0.0742 -4.34311,-0.24422c-4.59218,-0.54221 -9.22095,-1.03973 -13.84295,-0.90092c-7.94841,0.22079 -15.92651,0.48714 -23.90257,0.90029c0.18627,0.41311 0.3415,0.8107 0.46067,1.18655c0.07743,0.24421 0.32613,2.50586 0.58407,4.99145c4.02017,0.74837 8.15982,0.86915 12.14269,1.80478c9.36912,2.20094 18.71566,5.08371 27.95086,8.2367c0.35337,-2.09015 0.47345,-4.26582 0.96272,-6.31488zM260.33957,139.12695c2.06584,0.05488 4.15282,0.13167 6.24496,0.19775c-1.51233,-0.48685 -3.02565,-0.97101 -4.53947,-1.45395c-0.11294,0.11935 -0.22415,0.23986 -0.33332,0.36174c-0.48245,0.30917 -0.93822,0.60723 -1.37217,0.89446zM273.83899,95.98417c-0.79823,-0.14051 -1.59648,-0.28025 -2.39476,-0.41922c-0.54536,0.62679 -1.17871,1.35379 -1.84271,2.11546c0.30192,0.66378 0.62147,1.31736 0.99598,1.93774c0.05349,0.08861 0.10888,0.17605 0.16592,0.26248c1.50286,-1.05337 2.97865,-2.39428 3.26463,-3.85095c-0.06299,-0.01533 -0.12601,-0.03051 -0.18906,-0.04552zM173.6008,81.11319c-0.0046,0.00452 -0.0092,0.00904 -0.01379,0.01357c-0.56918,0.56173 -0.22778,1.58308 -0.34168,2.37461c0.00379,0.49423 -0.02452,0.992 -0.06555,1.49103c0.5598,-1.33273 1.42735,-2.50217 2.44371,-3.56693c-0.67654,-0.10149 -1.35066,-0.20556 -2.02269,-0.31229zM173.17311,90.42449c0.01109,0.04176 0.02293,0.08325 0.03546,0.12448c0.19723,-0.17615 0.4132,-0.33175 0.64455,-0.46344c-0.3258,-0.94554 -0.71302,-1.89735 -0.8797,-2.82667c-0.07561,1.07293 -0.07385,2.13573 0.19968,3.16563zM180.08013,103.47101c-0.10341,-1.33179 -0.20281,-2.65873 -0.30959,-3.97114c-0.26441,-0.32112 -0.52553,-0.64477 -0.78326,-0.97088c-0.88299,0.95025 -1.84929,1.90119 -1.72848,3.09002c0.03723,0.36635 0.74872,0.13937 1.04515,0.35784c0.61877,0.45603 1.00751,1.20464 1.63275,1.63827c0.04778,-0.04805 0.09559,-0.09609 0.14342,-0.1441zM258.36761,183.44516c0.38344,-0.01462 0.65804,-0.26212 0.88073,-0.60312c-0.66455,0.13204 -1.32841,0.26494 -1.99147,0.39859c0.35545,0.13836 0.72279,0.21932 1.11074,0.20453zM329.50884,115.54134c0.2485,-0.64721 0.47496,-1.30019 0.67619,-1.95881c-0.60612,0 -1.21224,0 -1.81836,0c-2.88227,0 -5.78423,-0.30782 -8.65996,-0.21466c-0.57552,0.60067 -1.15823,1.19632 -1.74673,1.7878c0.4755,0.3619 0.89878,0.78419 1.25094,1.28815c1.32026,1.88939 -0.26095,4.7284 -1.28152,6.79512c-0.22604,0.45775 -0.52805,0.8653 -0.87808,1.23756c4.30757,-2.76262 8.47375,-5.77486 12.45753,-8.93515zM333.87871,93.74024c1.41713,1.48012 2.6787,3.07078 3.51949,5.07717c0.67166,-0.33729 1.33764,-0.68702 1.99748,-1.04991c0.82573,-0.44453 2.25964,-1.12507 3.8018,-1.95529c-2.89188,-1.03166 -5.81373,-1.9985 -8.72689,-2.92078c-0.19251,0.28577 -0.39042,0.56835 -0.59189,0.84881zM349.17738,87.16462c-0.05693,-1.9797 0.1081,-3.96358 0.00773,-5.94155c-0.2716,-5.35208 -0.68153,-12.064 -3.53207,-16.75688c-0.83431,-1.37353 -2.33048,-2.21394 -3.46868,-3.34848c-1.60502,-1.59985 -2.98595,-3.44413 -4.76024,-4.85393c-0.77959,-0.61944 -1.85044,-0.73651 -2.76655,-1.12664c-4.60025,-1.95902 -9.17556,-3.97607 -13.76333,-5.96411c-4.51421,-1.95616 -8.9548,-4.09101 -13.53956,-5.87556c-5.50654,-2.14334 -11.64605,-3.34761 -17.3214,-4.98287c-9.60907,-2.76871 -19.21814,-5.53743 -28.82721,-8.30614c-3.23155,-0.93113 -6.4341,-1.89025 -9.61917,-2.8833c-1.76897,0.036 -3.53768,0.08029 -5.30561,0.13065c1.2685,0.14817 2.53468,0.30003 3.73947,0.70322c5.02022,1.68005 10.37392,5.03197 14.7692,8.01458c1.70862,2.22488 4.0429,4.08685 5.12585,6.67464c1.56373,3.73665 -0.60597,8.46318 -1.73077,11.79775c-0.24373,0.72255 -0.46004,1.45748 -0.6728,2.19416c2.80884,-0.06376 5.61779,-0.08266 8.42569,-0.01489c1.41567,0.03417 3.00473,-0.40934 4.23866,0.28545c1.05337,0.59313 2.2435,1.57742 3.41845,2.76489c9.69999,-0.47461 19.4458,-0.5212 29.15223,-0.79083c5.07284,-0.13052 10.19775,0.08422 15.19163,0.98524c2.55411,0.46083 5.63993,-0.08073 7.62066,1.59636c6.94182,5.87766 4.37273,10.35344 2.91581,17.34737c-0.4894,2.34935 -0.70875,4.80371 -1.1817,7.16742c4.13549,1.47201 8.2437,2.97743 12.31651,4.47853c0.22136,-1.02397 -0.40147,-2.20609 -0.43278,-3.2951zM217.1907,30.95272c13.42932,0.12946 29.8862,3.68815 35.2595,18.03227c0.67936,1.81357 0.07499,3.87254 0.11248,5.80881c-0.25525,0.79923 -0.50587,1.59971 -0.75365,2.40092c0.53864,-0.01755 1.0755,-0.03535 1.61034,-0.0538c2.09287,-0.07217 4.18691,-0.15833 6.28162,-0.24112c0.54829,-1.57011 0.84891,-3.24181 1.36893,-4.82551c0.74511,-2.26921 2.83677,-4.80721 1.76869,-6.94349c-0.7131,-1.42628 -2.07802,-2.4193 -3.11702,-3.62895c-3.54045,-2.29549 -8.08063,-5.10329 -12.02014,-6.41045c-1.86641,-0.61929 -3.90573,-0.50565 -5.82511,-0.93344c-6.56413,-1.46303 -11.9062,-2.95533 -18.5561,-3.97999c-1.57174,-0.24218 -3.15362,-0.46817 -4.70037,-0.83532c-0.62576,0.12834 -1.25315,0.25614 -1.88116,0.38467c-0.05577,0.40149 -0.08876,0.80868 -0.12168,1.21571c0.1913,0.0045 0.38254,0.00783 0.57369,0.00968zM356.66199,88.43538c3.56179,-3.90421 6.98702,-7.87524 10.32058,-12.11523c2.68775,-3.41858 5.24917,-6.94481 7.60457,-10.60033c1.21914,-1.89208 2.8425,-3.57027 3.68859,-5.65603c0.69924,-1.72374 0.44108,-3.70025 0.84351,-5.51636c0.25762,-1.16261 1.37265,-2.22327 1.12982,-3.38905c-0.17942,-0.86136 -1.49416,-0.94368 -2.15363,-1.52612c-1.88504,-1.66484 -3.86789,-3.30009 -6.13065,-4.39782c-4.41227,-1.86632 -8.49209,-4.54162 -13.04498,-6.03242c-4.57837,-1.49915 -9.50478,-1.57969 -14.25382,-2.38934c-9.81872,-1.67396 -19.61302,-3.43262 -29.48438,-4.76621c-9.81267,-1.32566 -19.67596,-3.08223 -29.53422,-3.99632c-1.90307,-0.17646 -3.80979,-0.32631 -5.71947,-0.45238c4.06063,1.17001 8.12127,2.34003 12.1819,3.51004c5.84006,1.68273 12.10661,2.93767 17.77937,5.13091c0.23838,0.09216 13.61522,5.89151 13.9871,6.05266c4.58778,1.98804 9.1867,3.95054 13.76333,5.96411c1.33956,0.58936 2.84074,0.91518 4.00167,1.80626c2.16879,1.66467 3.91561,3.81696 5.84636,5.75267c1.50862,1.5125 3.37768,2.75622 4.47119,4.59139c3.51626,5.90116 4.36116,13.60645 4.71081,20.33606c0.02324,0.44731 0.04208,4.29312 -0.00766,7.69352zM205.57023,104.59552c0.30569,0.45915 0.67959,0.85785 1.09023,1.22419c0.84953,-0.00897 1.69947,-0.00829 2.54965,0.00101c-1.2153,-1.64724 -2.40408,-3.30413 -3.59401,-4.88111c-0.5609,-0.09498 -1.12189,-0.18944 -1.68298,-0.28332c0.41713,1.37946 0.84694,2.75238 1.63712,3.93924zM151.30315,68.67805c-0.62189,-3.63032 -1.33268,-8.44782 -1.18565,-12.4654c-0.80101,0.14412 -1.5847,0.33285 -2.34427,0.5861c-4.13038,1.37708 -7.74636,4.3557 -12.04365,5.05545c-1.59134,0.25913 -3.19577,-0.43031 -4.79365,-0.64546c1.48021,0.44894 3.08849,0.59562 4.44063,1.34681c1.17771,0.65428 1.731,2.19164 2.95233,2.76035c4.05022,1.88599 8.62948,2.29019 12.97427,3.36216zM180.6366,46.67693c-0.44624,0.46991 -0.89153,0.94113 -1.34203,1.4058c5.22287,0.20887 10.44386,0.26969 15.68766,0.28989c1.12304,-0.29778 2.25011,-0.58014 3.3806,-0.84984c0.33931,-2.26321 0.73775,-4.51688 1.20207,-6.75787c-1.21407,0.33677 -2.42984,0.66398 -3.65272,0.95079c-4.72226,1.10752 -10.12833,2.37142 -14.48729,4.53602c-0.26767,0.13292 -0.53,0.27545 -0.78829,0.42522zM216.73642,60.5717c1.37946,0.01038 2.75888,0.02444 4.13795,0.0401c0.36934,-0.10595 0.73997,-0.20828 1.11182,-0.30714c0.62432,-0.89977 1.25408,-1.79528 1.90298,-2.67567c0.20074,-0.50962 0.46545,-1.00558 0.72427,-1.5028c-5.00674,0.22193 -10.10577,0.08953 -15.17251,-0.05175c0.46343,0.3178 0.93042,0.62755 1.4068,0.91642c1.91167,1.1592 3.89728,2.34792 5.88869,3.58085zM217.56614,77.84531c-0.44945,0.47899 -0.90167,0.9555 -1.35643,1.42973c4.16801,0.57025 8.32911,1.16102 12.48526,1.7709c0.09573,-0.05999 0.19146,-0.11995 0.28717,-0.17988c-0.22014,-0.28358 -0.43561,-0.57257 -0.64893,-0.86419c-3.07008,-1.2784 -6.22155,-2.2866 -9.51819,-2.48559c-0.01646,-0.00099 -0.03293,-0.00197 -0.04939,-0.00292c-0.40161,0.11025 -0.80137,0.22082 -1.19949,0.33194zM218.77044,176.42569c-1.16734,-0.38039 -2.34116,-0.76045 -3.51343,-1.14786c-1.33655,0.01104 -2.6731,0.02111 -4.00964,0.03031c0.35263,0.52 0.7675,0.97559 1.30386,1.30645c1.58501,0.97773 3.97845,0.55607 6.21921,-0.18889zM191.59808,146.74742c-3.97186,0.09386 -7.97395,0.09744 -11.84961,-0.3926c0.15334,0.06267 0.30672,0.12522 0.46013,0.18768c4.31898,1.75846 8.6758,3.4289 13.04836,5.06031c-0.56019,-1.61595 -1.11219,-3.23475 -1.65888,-4.8554zM207.08668,41.45262c-0.30976,1.45145 -0.58819,2.90788 -0.8382,4.36863c2.22065,-0.43915 4.4487,-0.85473 6.67955,-1.26709c-0.28264,-0.14643 -0.56553,-0.2927 -0.84866,-0.43883c-1.67894,-0.86655 -3.339,-1.76099 -4.99269,-2.66272zM179.54754,156.8414c-1.85316,-0.98776 -3.68888,-2.002 -5.4568,-3.08995c2.21809,1.56965 3.18181,2.34287 5.4568,3.08995zM280.88357,67.76085c-0.04662,0.00307 -0.09324,0.00615 -0.13986,0.00923c0.06629,0.03345 0.13258,0.06708 0.19887,0.10088c-0.01947,-0.0368 -0.03914,-0.0735 -0.05902,-0.11012zM340.83029,105.47084c-0.41875,0.20813 -0.83926,0.41197 -1.26145,0.61168c0.22331,0 0.44662,0 0.66993,0c0.19779,-0.20294 0.39495,-0.40687 0.59152,-0.61168zM330.49865,101.80602c-0.25169,-0.56197 -0.63201,-1.15835 -1.09037,-1.7647c-0.58978,0.90924 -1.1795,1.83784 -1.77511,2.77047c0.96195,-0.31824 1.91748,-0.65291 2.86548,-1.00576zM231.53278,58.47016c1.10251,-0.14401 2.20935,-0.26925 3.31863,-0.37895c-0.87142,-0.46094 -1.74011,-0.92692 -2.60171,-1.40428c-0.22155,0.5968 -0.47007,1.1899 -0.71692,1.78323zM299.73379,116.79619c-2.35363,0.51677 -4.70493,1.05083 -7.05247,1.58323c-0.57595,2.90801 -1.16256,5.83131 -1.87818,8.68771c1.44273,0.13468 2.81847,0.1015 4.15854,-0.07455c3.02427,-2.95715 5.97773,-6.01205 8.97951,-8.92667c-1.40416,-0.4168 -2.80216,-0.85724 -4.20739,-1.26972zM276.30726,104.81603c0.34379,0.04345 0.68699,0.0873 1.02963,0.1316c0.07171,-0.37225 0.14546,-0.7507 0.22441,-1.1308c-0.39991,0.34201 -0.81962,0.67306 -1.25403,0.9992zM350.86667,106.08253c5.00076,0.04338 8.79647,-1.26436 13.53274,-1.26865c-0.50439,-0.03748 -1.00942,-0.09578 -1.30038,-0.18207c-1.09277,-0.32406 -2.05828,-0.98008 -3.07978,-1.48575c-1.55891,-0.7717 -3.08649,-1.60935 -4.64431,-2.38279c-1.64682,1.72236 -3.2719,3.51899 -4.90806,5.31926c0.13326,0 0.26652,0 0.39978,0zM219.39094,103.35543c-1.02355,-0.18379 -2.04718,-0.36707 -3.07094,-0.54956c0.6611,0.88232 1.33289,1.75202 2.02307,2.58991c0.30312,-0.67357 0.65344,-1.3637 1.04787,-2.04035zM235.80903,106.30536c-1.81163,-0.3209 -3.62265,-0.6448 -5.43336,-0.97018c-0.91637,-0.02075 -1.85604,-0.50232 -2.74742,-0.28097c-0.48737,0.12102 -0.50811,0.87463 -0.84413,1.24782c-0.15364,0.17064 -0.31401,0.35741 -0.47867,0.55754c0.84519,0.07838 1.68957,0.15845 2.53297,0.23919c2.36407,-0.40279 4.66347,-0.64632 6.97061,-0.79339zM230.61263,97.73716c8.50597,-1.51548 15.90424,-4.36773 24.5578,-4.15601c-0.10975,-0.19638 -0.22071,-0.39203 -0.33287,-0.58691c-0.10048,-0.08787 -0.20083,-0.17593 -0.30117,-0.264c-8.08078,-1.30575 -16.16596,-2.54605 -24.25771,-3.73897c-1.1635,0.92335 -2.21585,2.02289 -3.56582,2.61838c-5.10618,2.25242 -8.06593,0.90518 -13.54482,1.34744c-1.08715,0.08776 -2.16677,0.23774 -3.24318,0.41495c0.10623,0.24616 0.20957,0.48568 0.30953,0.71732c6.79887,1.17588 13.58667,2.4199 20.37824,3.64779zM250.46609,101.19864c1.53459,0.25152 3.0701,0.49807 4.60671,0.73867c0.30708,-0.26405 0.6143,-0.52796 0.92165,-0.79176c-1.84062,-0.0714 -3.68682,-0.01714 -5.52836,0.05309z" fill="#000000" stroke="none" stroke-width="0.5"/></g></g></svg>