<svg version="1.1" xmlns="http://www.w3.org/2000/svg" xmlns:xlink="http://www.w3.org/1999/xlink" width="118.06939" height="102.22562" viewBox="0,0,118.06939,102.22562"><g transform="translate(-175.32793,-151.96607)"><g data-paper-data="{&quot;isPaintingLayer&quot;:true}" fill-rule="nonzero" stroke="none" stroke-width="1" stroke-linecap="butt" stroke-linejoin="miter" stroke-miterlimit="10" stroke-dasharray="" stroke-dashoffset="0" style="mix-blend-mode: normal"><path d="M274.78157,217.25169c-0.05,2.89 -1.12,5.59 -3.05,7.78c0.2,0.85 0.32,1.72 0.32,2.63c0,0.01 0,0.01 0,0.01c0,0.01 0,0.01 0,0.02c0,0 0,0.01 0,0.02v13.89c0,0.58 -0.04,1.16 -0.13,1.73c-0.86,5.4 -5.44,10.86 -13.72,10.86c-4.77,0 -8.97,-2.25 -11.32,-6.02c-3.32,0.36 -6.83,0.27 -9.95,-0.39c-9.5,-2.03 -13.42,-12.29 -14.73,-15.78c-0.5,-1.28 -0.77,-2.58 -1.4,-6.77c-0.65,-4.28 -0.74,-5.86 -0.74,-6.94v-8.7c0,-0.67 5.55233,5.73157 5.67233,5.07157c0.16984,-0.92738 -3.82171,-2.91759 -8.5914,-8.80245c-12.92288,-15.94429 -42.02524,-52.61454 -41.81343,-53.87085c0.2,-1.23 46.91249,45.45173 47.51249,44.36173c0.21,-0.39 0.43,-0.75 0.64,-1.1c18.4715,28.68961 13.64328,40.48448 17.7599,37.93566c0.81697,-0.50583 -8.49193,-47.28194 -7.5199,-47.73566c3.97,-1.85 8.4,-2.79 13.17,-2.79c3.13,0 6.1,0.45 8.82,1.32c0.12,0.04 0.24,0.08 0.35,0.12c5.68,2.04 9.09,3.96 11.39,6.39c0.32471,0.3428 -16.24966,21.08894 -27.26049,26.23919c-8.52225,3.98624 -12.13869,-7.3475 -11.91839,-7.05288c1.23213,1.64785 10.12005,1.28649 19.1985,-0.14503c12.7121,-2.00449 26.55157,-5.35346 26.90038,-1.59128c0.33,3.27 0.47,6.41 0.41,9.31z" data-paper-data="{&quot;index&quot;:null}" fill="#00cccc"/><path d="M290.82431,218.64299c-0.61226,0.34065 -1.12197,0.49777 -1.53104,0.47024c-1.80207,-0.29771 -2.79525,-0.84965 -2.9736,-1.65445c-0.18327,-0.80613 -0.19876,-1.4396 -0.04853,-1.89955c0.68337,-2.30531 0.82047,-5.20565 0.40924,-8.70016c-0.73908,-6.51535 -4.59709,-9.86101 -11.58008,-10.0364c-1.40872,-0.0367 -2.87001,0.27587 -4.38294,0.93875c-1.5148,0.66075 -1.09213,3.12301 -1.87339,4.24707c-1.10892,1.6292 -3.46052,2.06394 -3.91338,4.4439c-0.11098,0.75525 -67.79807,-6.06757 -68.10783,-3.20792c-0.31918,3.37674 29.70215,11.92379 47.46005,16.92601c3.35269,0.94442 9.33063,7.23452 11.73197,7.92348c9.30068,2.66842 8.8906,-1.78781 9.40992,-0.18594c0.36365,1.14896 23.40284,-3.41661 26.66112,-10.54503c5.42804,-11.87539 -7.82563,-29.4705 -6.61856,-29.38924c0.89636,0.06034 6.66118,15.52724 3.32378,28.07782c-2.32406,8.73981 -14.31579,16.06542 -13.40399,15.78942c2.21831,-0.67453 4.03836,-1.52221 5.46006,-2.54203c1.08542,-1.27999 1.80077,-2.31829 2.14918,-3.11669c0.36403,-0.15189 0.69021,-0.21814 0.98355,-0.19839c0.61631,-0.43058 1.69777,-0.32671 3.24074,0.30635c0.57286,0.21496 0.94654,0.7683 1.1229,1.66217c0.00799,-0.11873 -0.02156,0.32028 -0.08859,1.31602c-0.05507,0.81815 -0.19094,2.83659 -0.4076,6.0553c-0.28746,4.27033 -0.4332,6.43543 -0.43716,6.4943c-0.23854,1.04233 -1.22186,1.50534 -2.94795,1.38915c-1.00373,-0.06757 -1.65539,-0.4071 -1.95035,-1.01328c-0.29681,-0.60831 1.98525,-25.14995 2.13968,-26.55074c0.19575,-2.04447 -2.08926,20.4714 -2.14713,20.4675c0.02684,-1.29211 0.01813,-2.02636 -0.02891,-2.20593c-0.35121,-0.02364 -0.64844,0.01449 -0.88884,0.11657c-3.65184,1.86996 -7.64388,2.65963 -11.97308,2.36821c-1.34596,-0.0906 -2.56718,-0.29208 -3.66202,-0.59931c-2.42091,-0.69316 -4.473,-3.82806 -6.15406,-9.40756c-0.09799,-0.30126 -0.26198,-1.81069 -0.48899,-4.52806c-0.22887,-2.71951 -0.31526,-4.48831 -0.26013,-5.30746l0.58485,-8.68833c0.87988,-3.46774 1.524,-6.06835 1.93647,-7.80356c0.3268,-0.50719 0.61874,-0.89847 0.87189,-1.17509c0.78149,-2.00605 2.58989,-3.5591 5.42723,-4.66002c2.59416,-1.00204 5.47209,-1.39563 8.63094,-1.183c1.9885,0.13386 3.78466,0.51935 5.38849,1.15651c3.653,1.59695 5.94091,2.95568 6.86573,4.07632c2.0115,2.42758 3.08045,6.17182 3.21162,11.23606c0.09945,2.8852 0.03593,5.55596 -0.18636,8.00957c-0.02754,0.40908 -0.3484,0.78337 -0.95488,1.12742z" data-paper-data="{&quot;index&quot;:null}" fill="#ffffff"/></g></g></svg>