<svg version="1.1" xmlns="http://www.w3.org/2000/svg" xmlns:xlink="http://www.w3.org/1999/xlink" width="566.06607" height="423.42342" viewBox="0,0,566.06607,423.42342"><defs><radialGradient cx="243.15317" cy="184.35443" r="283.03304" gradientUnits="userSpaceOnUse" id="color-1"><stop offset="0" stop-color="#ffb4b4"/><stop offset="1" stop-color="#f0b4ff"/></radialGradient><radialGradient cx="239.99835" cy="179.99879" r="57.53617" gradientTransform="translate(-132.36857,-142.11898) scale(0.72545,0.72545)" gradientUnits="userSpaceOnUse" id="color-2"><stop offset="0" stop-color="#000000"/><stop offset="1" stop-color="#ffffff"/></radialGradient></defs><g transform="translate(39.87987,27.35729)"><g data-paper-data="{&quot;isPaintingLayer&quot;:true}" fill-rule="nonzero" stroke-linecap="butt" stroke-linejoin="miter" stroke-miterlimit="10" stroke-dasharray="" stroke-dashoffset="0" style="mix-blend-mode: normal"><path d="M160.42042,225.7958v-91.59159h159.15916v91.59159z" fill="#7f7f7f" stroke="none" stroke-width="0"/><g data-paper-data="{&quot;isHelperItem&quot;:true}" stroke-width="0"><path d="M-39.87987,396.06614v-423.42342h566.06607v423.42342z" fill="url(#color-1)" stroke="none"/><text transform="translate(170.4515,199.22417) scale(1.66623,1.66623)" font-size="40" xml:space="preserve" fill="#696969" fill-rule="nonzero" stroke-opacity="0" stroke="#000000" stroke-width="0" stroke-linecap="butt" stroke-linejoin="miter" stroke-miterlimit="10" stroke-dasharray="" stroke-dashoffset="0" font-family="Sans Serif" font-weight="normal" text-anchor="start" style="mix-blend-mode: normal"><tspan x="0" dy="0">LMR</tspan></text><g data-paper-data="{&quot;isSelectionBound&quot;:true,&quot;isHelperItem&quot;:true}" fill="none" stroke="none"><path d="M170.4515,218.44832v-38.4483v-38.4483h69.5485h69.5485v38.4483v38.4483h-69.5485z"/><path d="M238.4985,187.50753v-6.00601h-6.00601c-0.82925,0 -1.5015,-0.67225 -1.5015,-1.5015c0,-0.82925 0.67225,-1.5015 1.5015,-1.5015h6.00601v-6.00601c0,-0.82925 0.67225,-1.5015 1.5015,-1.5015c0.82925,0 1.5015,0.67225 1.5015,1.5015v6.00601h6.00601c0.82925,0 1.5015,0.67225 1.5015,1.5015c0,0.82925 -0.67225,1.5015 -1.5015,1.5015h-6.00601v6.00601c0,0.82925 -0.67225,1.5015 -1.5015,1.5015c-0.82925,0 -1.5015,-0.67225 -1.5015,-1.5015z"/></g></g><text transform="translate(182.46345,195.90391) scale(1.37845,1.37845)" font-size="40" xml:space="preserve" fill="#6b6b6b" fill-rule="nonzero" stroke="url(#color-2)" stroke-width="5" stroke-linecap="butt" stroke-linejoin="miter" stroke-miterlimit="10" stroke-dasharray="" stroke-dashoffset="0" font-family="Sans Serif" font-weight="normal" text-anchor="start" style="mix-blend-mode: normal"><tspan x="0" dy="0">LMR</tspan></text><text transform="translate(175.10303,214.29728) scale(0.5,0.5)" font-size="40" xml:space="preserve" fill="#4b4b4b" fill-rule="nonzero" stroke="none" stroke-width="1" stroke-linecap="butt" stroke-linejoin="miter" stroke-miterlimit="10" stroke-dasharray="" stroke-dashoffset="0" font-family="Sans Serif" font-weight="normal" text-anchor="start" style="mix-blend-mode: normal"><tspan x="0" dy="0">BUT I FIXED IT</tspan></text><path d="M-31.64414,31.71428v-45.04505h527.02703v45.04505z" fill="#000000" stroke="none" stroke-width="0"/><path d="M-22.13964,377.55512v-45.04505h527.02703v45.04505z" fill="#000000" stroke="none" stroke-width="0"/><text transform="translate(4.39189,327.51007) scale(0.5,0.5)" font-size="40" xml:space="preserve" fill="#000000" fill-rule="nonzero" stroke="none" stroke-width="1" stroke-linecap="butt" stroke-linejoin="miter" stroke-miterlimit="10" stroke-dasharray="" stroke-dashoffset="0" font-family="Sans Serif" font-weight="normal" text-anchor="start" style="mix-blend-mode: normal"><tspan x="0" dy="0">@stebberry</tspan></text></g></g></svg>