<svg version="1.1" xmlns="http://www.w3.org/2000/svg" xmlns:xlink="http://www.w3.org/1999/xlink" width="165.43602" height="313.65604" viewBox="0,0,165.43602,313.65604"><g transform="translate(-158.8097,-22.91856)"><g data-paper-data="{&quot;isPaintingLayer&quot;:true}" fill-rule="nonzero" stroke-linecap="butt" stroke-linejoin="miter" stroke-miterlimit="10" stroke-dasharray="" stroke-dashoffset="0" style="mix-blend-mode: normal"><path d="M274.07277,315.4451c1.64862,0.34397 3.06115,1.4573 4.69453,1.86757c1.03224,0.25928 2.13958,-0.05258 3.19091,0.11311c3.2389,0.51046 10.54856,2.08354 12.00647,5.66286c0.43074,1.05752 -2.07644,8.16593 -2.90291,8.83945c-0.97029,0.79073 -2.55626,-0.0499 -3.73732,0.36462c-1.13403,0.39802 -1.85314,1.64061 -3,2c-1.18517,0.3714 -2.48262,0.08746 -3.72446,0.10727c-4.74046,0.07562 -9.25111,0.3393 -13.79057,-1.12829l-2.32746,-1.13564c0,0 -0.67816,-0.33908 -1.1008,-1.01723c-0.67816,-0.42265 -1.01723,-1.1008 -1.01723,-1.1008l-2,-4c-1.20242,-2.41157 -2.81139,-4.60605 -4.00972,-7.01966c-0.90157,-1.8159 -0.84337,-4.04222 -1.88084,-5.78405c-1.70026,-2.85462 -5.16432,-4.69262 -7.99141,-6.07826c0,0 -2.23607,-1.11803 -1.11803,-3.3541c1.11803,-2.23607 3.3541,-1.11803 3.3541,-1.11803c3.65351,1.85711 7.78912,4.2407 10.00859,7.92174c1.54401,2.56077 0.87205,3.74201 2.11916,6.21595c0.03662,0.07265 0.0736,0.14512 0.11089,0.21741c2.71008,-2.36034 9.95325,-2.23383 13.11609,-1.57393z" fill="#000000" stroke="none" stroke-width="0.5"/><path d="M208.60001,315.39999h3c0,0 0.73905,0 1.41349,0.40183c1.55261,-3.80619 3.05473,-7.62614 4.1827,-11.58863c0,0 0.6868,-2.40381 3.09061,-1.71701c2.40381,0.6868 1.71701,3.09061 1.71701,3.09061c-2.32326,8.10333 -6.1327,15.64699 -8.90381,23.62061v2.69259c0,0.15806 -0.01467,0.3127 -0.04272,0.46263c0.0277,0.16488 0.04272,0.34362 0.04272,0.53737c0,2.5 -2.5,2.5 -2.5,2.5h-3c-1.89404,-0.02352 -3.72953,0.66612 -5.59954,0.96772c-2.76445,0.44586 -5.60028,0.03228 -8.40046,0.03228c-0.7498,0 -7.53773,0.09413 -8.17964,-0.29581c-1.45986,-0.88683 -2.24356,-2.60881 -3.06614,-4.10581c-5.30549,-9.65529 5.65187,-16.42701 13.94033,-17.57965c2.08516,-0.28997 5.63699,0.03955 7.84185,0.98127c1.48787,0 2.97574,0 4.4636,0zM209.32228,325.06777c0.08545,-0.23228 0.17166,-0.46424 0.25856,-0.6959c-0.19704,-0.00964 -0.39402,-0.02164 -0.5909,-0.03588c0.1016,0.24625 0.21443,0.48965 0.33234,0.73178z" fill="#000000" stroke="none" stroke-width="0.5"/><path d="M291.20728,181.14941c-2.21782,-6.55414 2.21278,-15.87236 8.66827,-18.11719c0.63733,-0.22163 6.5876,-0.0537 7.29884,-0.04039c2.59734,1.25852 5.67896,1.65648 7.9431,3.44636c1.09104,0.8625 1.54088,2.32074 2.41587,3.40179c0.68164,0.84217 1.74986,1.38807 2.24214,2.35323c0.66097,1.29586 0.53568,2.88418 1.11079,4.22036c0.46265,1.07491 1.45204,1.85851 1.9595,2.91301c1.54576,3.21204 1.23739,3.76383 1.25421,7.09838c0.01526,3.02553 0.88322,8.55506 -1.80138,10.83431c-2.38525,2.02509 -6.8581,1.67012 -9.69862,1.66569c-1.46686,-0.00228 -2.95088,0.19222 -4.40046,-0.03228c-0.79221,-0.12269 -1.54327,-0.32222 -2.25962,-0.58474c-0.92532,2.70889 -1.38755,5.71308 -1.8722,8.51748c-0.34059,1.97079 0.31845,4.02552 0,6c-0.16784,1.04064 -0.82671,1.96025 -1,3c-0.64359,3.86155 -0.01739,7.80253 -4.51101,9.90924c-1.07438,0.50369 -2.38775,-0.04837 -3.55625,0.15802c-1.03802,0.18334 -1.95602,0.85438 -3,1c-8.15196,1.13711 -17.16149,0.03228 -25.40046,0.03228c0,0 -2.5,0 -2.5,-2.5c0,-2.5 2.5,-2.5 2.5,-2.5c6,0 12,0 18,0c2.19987,0 4.42295,0.35145 6.59954,0.03228c1.04294,-0.15293 1.95829,-0.83888 3,-1c0.80669,-0.12477 1.65346,0.36239 2.44375,0.15802c2.01449,-0.52095 1.31753,-5.06201 1.48899,-6.09076c0.17329,-1.03975 0.82049,-1.9613 1,-3c0.34059,-1.97079 -0.31845,-4.02552 0,-6c0.50113,-3.10717 1.11846,-6.36643 2.09601,-9.39011l0.57246,-0.70567c-2.16424,-1.68928 -4.05224,-3.81972 -5.96851,-5.73599c0,0 -1.54864,-1.54864 -0.29747,-3.19644c-1.79302,-1.71811 -3.56596,-3.59637 -4.3275,-5.84686z" data-paper-data="{&quot;index&quot;:null}" fill="#000000" stroke="none" stroke-width="0.5"/><path d="M165.97363,247.99138c2.92154,-2.89876 5.72441,-4.96385 9.21168,-5.94705l0.04298,-0.9349c2.06933,-6.20798 5.20011,-11.52142 8.12592,-17.30781c0.53803,-1.06406 0.44867,-2.45219 1.21768,-3.3634c3.89102,-4.61051 12.66579,-8.01535 18.62765,-9.00594c2.7623,-0.45897 5.60028,-0.03228 8.40046,-0.03228c0,0 2.5,0 2.5,2.5c0,2.5 -2.5,2.5 -2.5,2.5c-5.96206,0 -10.49219,0.44832 -16.04329,2.8097c-1.55119,0.65986 -5.7985,2.77109 -6.9286,4.15208c-0.58058,0.70946 -0.37644,1.81461 -0.78232,2.6366c-2.57073,5.20628 -5.42732,9.95875 -7.42138,15.39896c0.05833,0.00066 0.11687,0.00155 0.17559,0.00266c1.65316,0.03126 3.41731,-0.41315 4.95671,0.1903c5.56349,2.18091 4.61606,9.74775 4.54329,14.3097c-0.01981,1.24184 0.26865,2.54071 -0.10727,3.72446c-0.40347,1.2705 -1.53693,2.18866 -2.14694,3.37392c-0.60342,1.17246 -0.55472,2.72796 -1.47802,3.66939c-0.86619,0.88319 -2.39713,0.71503 -3.45344,1.35886c-0.91455,0.55743 -1.35506,1.80624 -2.35762,2.18307c-2.62607,0.98706 -8.18586,0.1903 -10.95671,0.1903c-3.5111,-0.06569 -6.09216,0.4274 -8.9501,-2.93568c-1.18228,-1.39124 -1.20604,-3.4623 -1.53116,-5.25886c-0.91339,-5.04717 0.16133,-7.52105 3.7135,-11.07323c1.04103,-1.04103 1.94414,-2.30616 3.1414,-3.14085z" data-paper-data="{&quot;index&quot;:null}" fill="#000000" stroke="none" stroke-width="0.5"/><path d="M212.47942,304.60251v-162.16217h52.55255v162.16217z" fill="#e4e1a2" stroke="#83815d" stroke-width="5"/><path d="M215.07767,302.04992v-151.65165h10.13513v151.65166z" fill="#fffbda" stroke="none" stroke-width="0"/><path d="M314.75569,98.91857c0,40.59293 -34.02636,73.5 -76,73.5c-41.97364,0 -76,-32.90707 -76,-73.5c0,-40.59293 34.02636,-73.5 76,-73.5c41.97364,0 76,32.90707 76,73.5z" fill="#0001ff" stroke="#000067" stroke-width="5"/><path d="M310.75569,91.49094c0,33.6494 -28.20606,60.92763 -63,60.92763c-34.79394,0 -63,-27.27823 -63,-60.92763c0,-33.6494 28.20606,-60.92763 63,-60.92763c34.79394,0 63,27.27823 63,60.92763z" fill="#7d7dff" stroke="#000067" stroke-width="0"/><path d="M306.75569,84.51397c0,25.9047 -21.71419,46.9046 -48.5,46.9046c-26.78581,0 -48.5,-20.9999 -48.5,-46.9046c0,-25.9047 21.71419,-46.90461 48.5,-46.90461c26.78581,0 48.5,20.99992 48.5,46.90461z" fill="#b5b5ff" stroke="#000067" stroke-width="0"/><path d="M224.10001,63.9c0,2.5 -2.5,2.5 -2.5,2.5l-1.20943,-0.1283c-1.13004,0.36534 -2.21958,0.89525 -3.39012,1.09602c-2.34105,0.40153 -3.05876,-0.594 -5.08613,0.6589c-1.93435,1.19541 -2.95398,3.46538 -4.27348,5.31731c-1.29932,1.82359 -2.89526,3.50223 -3.75548,5.56953c-1.76881,4.25084 -2.44518,9.36863 -3.91366,13.77711c0,0 -0.79057,2.3717 -3.16228,1.58113c-2.37171,-0.79057 -1.58114,-3.16227 -1.58114,-3.16227c1.51805,-4.55088 2.23584,-9.83876 4.08634,-14.22289c0.07147,-0.16932 4.01666,-6.11222 4.24452,-6.43047c0.93072,-1.29999 3.90027,-5.60473 5.72652,-6.6827c3.06928,-1.81167 6.29244,-1.12584 9.52375,-2.24508l2.79057,-0.12829c0,0 2.5,0 2.5,2.5z" fill="#000000" stroke="none" stroke-width="0.5"/><path d="M222.20635,116.32535c-2.42535,0.60634 -3.03169,-1.81901 -3.03169,-1.81901l-0.97495,-3.90737c-2.01725,-6.23365 -1.0997,-13.18262 -1.0997,-19.69897c0,0 0,-2.5 2.5,-2.5c2.5,0 2.5,2.5 2.5,2.5c0,5.95498 -1.05369,12.64074 0.9003,18.30103l1.02506,4.09263c0,0 0.60634,2.42535 -1.81902,3.03169z" fill="#000000" stroke="none" stroke-width="0.5"/><path d="M254.99367,111.32535c-2.42535,-0.60634 -1.81901,-3.03169 -1.81901,-3.03169l0.94408,-3.69912c-0.041,-5.89795 -0.01873,-11.79645 -0.01873,-17.69454c0,0 0,-2.5 2.5,-2.5c2.5,0 2.5,2.5 2.5,2.5c0,6.1018 0.01585,12.20374 -0.01873,18.30545l-1.05592,4.30089c0,0 -0.60634,2.42535 -3.03169,1.81901z" fill="#000000" stroke="none" stroke-width="0.5"/><path d="M269.71804,106.66393l2.64974,1.4683c1.10874,1.10874 1.73309,2.87573 3.18894,3.45807c1.19136,0.47655 2.90375,-0.36538 3.81106,0.54193c0.90731,0.90731 0.02769,2.63548 0.54193,3.81106c0.37784,0.86379 1.69693,1.10723 2,2c1.19928,3.53287 -0.56083,8.81507 -3.32104,11.21615c-1.35498,1.17869 -3.1063,1.80873 -4.59368,2.81518c-3.95303,2.67483 -7.71294,5.08606 -11.842,7.50894c-0.62857,0.36884 -8.07732,4.97237 -8.79932,4.90427c-5.1934,-0.48979 -6.21927,-9.86576 -6.25365,-13.48783c0,0 0,-0.21908 0.06485,-0.52753c-0.72392,-0.08972 -1.5973,-0.48589 -1.96867,-1.78567c-0.6868,-2.40381 1.71701,-3.09061 1.71701,-3.09061c3.01098,-0.86015 6.27935,-1.1131 9.01837,-2.63086c4.94067,-2.73775 7.20071,-9.12745 7.20071,-14.36579l1.09601,-3.39011c0,0 0.79057,-2.37171 3.16228,-1.58114c1.90332,0.63444 1.77006,2.28718 1.64319,2.91523c0.40749,0.08203 0.68427,0.22042 0.68427,0.22042zM252.10001,130.89999c-0.02186,1.76048 0.32576,3.5356 0.87171,5.20943c0.26758,0.82038 0.53402,1.64208 0.75492,2.47624c0.07127,0.26909 -0.12731,0.95482 0.11972,0.82649c0.63764,-0.33125 0.83759,-1.19942 1.41679,-1.6247c1.36589,-1.00288 2.89755,-1.75803 4.35883,-2.61598c5.18639,-3.04509 10.83937,-5.96713 15.56431,-9.67589c1.01144,-0.79391 2.77062,-4.3206 2.10403,-5.63889c-0.42543,-0.84136 -1.69007,-1.10959 -2,-2c-0.2471,-0.7099 1.07345,-1.65743 0.54194,-2.18894c-0.53152,-0.53151 -1.49102,0.8211 -2.18894,0.54193c-0.56013,-0.22405 -4.11953,-3.85041 -4.81106,-4.54193l-0.86712,-0.34145c-0.6207,6.2038 -4.03196,12.71821 -9.53862,15.87207c-0.60217,0.34489 -4.06311,1.37075 -6.81034,2.15988c0.48385,0.70525 0.48385,1.54173 0.48385,1.54173z" fill="#000000" stroke="none" stroke-width="0.5"/><path d="M251.56838,129.373c2.74723,-0.78913 6.20804,-1.81543 6.81021,-2.16031c5.50666,-3.15385 8.97771,-9.73114 9.59841,-15.93494l0.87022,0.34231c0.69153,0.69152 4.27121,4.33013 4.83134,4.55418c0.69792,0.27917 1.6601,-1.07057 2.19161,-0.53905c0.53152,0.53151 -0.78597,1.48298 -0.53887,2.19288c0.30993,0.89041 1.57948,1.16743 2.00491,2.00879c0.66659,1.3183 -1.08849,4.86538 -2.09993,5.6593c-4.72494,3.70875 -10.4503,6.67495 -15.63669,9.72003c-1.46128,0.85796 -3.00047,1.60847 -4.36635,2.61135c-0.57919,0.42527 -0.77951,1.29316 -1.41716,1.62441c-0.24703,0.12833 -0.04982,-0.55848 -0.12108,-0.82758c-0.2209,-0.83417 -0.49232,-1.66054 -0.75991,-2.48092c-0.54594,-1.67383 -0.90263,-3.46267 -0.88076,-5.22315c0,0 -0.00209,-0.84205 -0.48594,-1.5473z" data-paper-data="{&quot;noHover&quot;:false,&quot;origItem&quot;:[&quot;Path&quot;,{&quot;applyMatrix&quot;:true,&quot;segments&quot;:[[[504.20001,261.79999],[0,0],[-0.04372,3.52097]],[[505.94343,272.21885],[-1.09189,-3.34767],[0.53516,1.64077]],[[507.45327,277.17133],[-0.44181,-1.66833],[0.14253,0.53819]],[[507.6927,278.82432],[-0.49406,0.25666],[1.27529,-0.66251]],[[510.52627,275.57493],[-1.15839,0.85054],[2.73177,-2.00577]],[[519.24393,270.34296],[-2.92255,1.71592],[10.37278,-6.09018]],[[550.37255,250.99119],[-9.44988,7.41751],[2.02289,-1.58783]],[[554.58061,239.7134],[1.33318,2.63659],[-0.85086,-1.68273]],[[550.58061,235.7134],[0.61986,1.78082],[-0.4942,-1.4198]],[[551.66448,231.33552],[1.06303,1.06303],[-1.06303,-1.06303]],[[547.2866,232.41939],[1.39583,0.55833],[-1.12025,-0.4481]],[[537.66448,223.33552],[1.38305,1.38305],[0,0]],[[535.93024,222.65262],[0,0],[-1.24139,12.4076]],[[516.853,254.39676],[11.01332,-6.30771],[-1.20435,0.68977]],[[503.23231,258.71653],[5.49446,-1.57827],[0.9677,1.41051]]],&quot;closed&quot;:true}]}" fill="#ffffff" stroke="none" stroke-width="0.5"/></g></g></svg>